<?xml version="1.0" encoding="UTF-8" standalone="no" ?>
<!DOCTYPE svg PUBLIC "-//W3C//DTD SVG 1.1//EN" "http://www.w3.org/Graphics/SVG/1.1/DTD/svg11.dtd">
<svg xmlns="http://www.w3.org/2000/svg" xmlns:xlink="http://www.w3.org/1999/xlink" version="1.1" width="16" height="16" viewBox="0 0 800 800" xml:space="preserve">
<desc>Created with Fabric.js 5.3.0</desc>
<defs>
</defs>
<g transform="matrix(33.3333333333 0 0 33.3333333333 400 400)" id="E2eNylhJPWFDf0rsANX7W"  >
<path style="stroke: none; stroke-width: 1; stroke-dasharray: none; stroke-linecap: butt; stroke-dashoffset: 0; stroke-linejoin: miter; stroke-miterlimit: 4; fill: rgb(255,255,255); fill-rule: nonzero; opacity: 1;"  transform=" translate(-12, -12)" d="M 21.0672 11.8568 L 20.4253 11.469 L 21.0672 11.8568 Z M 12.1432 2.93276 L 11.7553 2.29085 L 11.7553 2.29085 L 12.1432 2.93276 Z M 21.25 12 C 21.25 17.1086 17.1086 21.25 12 21.25 L 12 22.75 C 17.9371 22.75 22.75 17.9371 22.75 12 L 21.25 12 Z M 12 21.25 C 6.89137 21.25 2.75 17.1086 2.75 12 L 1.25 12 C 1.25 17.9371 6.06294 22.75 12 22.75 L 12 21.25 Z M 2.75 12 C 2.75 6.89137 6.89137 2.75 12 2.75 L 12 1.25 C 6.06294 1.25 1.25 6.06294 1.25 12 L 2.75 12 Z M 15.5 14.25 C 12.3244 14.25 9.75 11.6756 9.75 8.5 L 8.25 8.5 C 8.25 12.5041 11.4959 15.75 15.5 15.75 L 15.5 14.25 Z M 20.4253 11.469 C 19.4172 13.1373 17.5882 14.25 15.5 14.25 L 15.5 15.75 C 18.1349 15.75 20.4407 14.3439 21.7092 12.2447 L 20.4253 11.469 Z M 9.75 8.5 C 9.75 6.41182 10.8627 4.5828 12.531 3.57467 L 11.7553 2.29085 C 9.65609 3.5593 8.25 5.86509 8.25 8.5 L 9.75 8.5 Z M 12 2.75 C 11.9115 2.75 11.8077 2.71008 11.7324 2.63168 C 11.6686 2.56527 11.6538 2.50244 11.6503 2.47703 C 11.6461 2.44587 11.6482 2.35557 11.7553 2.29085 L 12.531 3.57467 C 13.0342 3.27065 13.196 2.71398 13.1368 2.27627 C 13.0754 1.82126 12.7166 1.25 12 1.25 L 12 2.75 Z M 21.7092 12.2447 C 21.6444 12.3518 21.5541 12.3539 21.523 12.3497 C 21.4976 12.3462 21.4347 12.3314 21.3683 12.2676 C 21.2899 12.1923 21.25 12.0885 21.25 12 L 22.75 12 C 22.75 11.2834 22.1787 10.9246 21.7237 10.8632 C 21.286 10.804 20.7293 10.9658 20.4253 11.469 L 21.7092 12.2447 Z" stroke-linecap="round" />
</g>
</svg>